inDegrees=no
num_controls=7
num_derivatives=13
num_iterations=110
num_multipliers=7
num_parameters=0
num_slacks=7
num_states=26
objective=6.371188
objective_accelerations=0.564351
objective_balance=0.080554
objective_effort=0.503422
objective_height=5.174400
objective_ligament=0.048461
solver_duration=951.997525
status=Solve_Succeeded
success=true
DataType=double
version=3
OpenSimVersion=4.4-2022-07-23-0e9fedc
endheader
time	/jointset/ground_pelvis/pelvis_tilt/value	/jointset/ground_pelvis/pelvis_tx/value	/jointset/ground_pelvis/pelvis_ty/value	/jointset/hip_r/hip_flexion_r/value	/jointset/hip_r/hip_adduction_r/value	/jointset/hip_r/hip_rotation_r/value	/jointset/back/lumbar_extension/value	/jointset/patellofemoral_r/patellar_flexion_r/value	/jointset/knee_r/knee_flexion_r/value	/jointset/knee_r/knee_adduction_r/value	/jointset/knee_r/knee_rotation_r/value	/jointset/ankle_r/ankle_angle_r/value	/jointset/subtalar_r/subtalar_angle_r/value	/jointset/ground_pelvis/pelvis_tilt/speed	/jointset/ground_pelvis/pelvis_tx/speed	/jointset/ground_pelvis/pelvis_ty/speed	/jointset/hip_r/hip_flexion_r/speed	/jointset/hip_r/hip_adduction_r/speed	/jointset/hip_r/hip_rotation_r/speed	/jointset/back/lumbar_extension/speed	/jointset/patellofemoral_r/patellar_flexion_r/speed	/jointset/knee_r/knee_flexion_r/speed	/jointset/knee_r/knee_adduction_r/speed	/jointset/knee_r/knee_rotation_r/speed	/jointset/ankle_r/ankle_angle_r/speed	/jointset/subtalar_r/subtalar_angle_r/speed	/forceset/tau_hip_flexion_r	/forceset/tau_hip_adduction_r	/forceset/tau_hip_rotation_r	/forceset/tau_knee_flexion_r	/forceset/tau_ankle_angle_r	/forceset/tau_subtalar_angle_r	/forceset/tau_lumbar_extension	lambda_cid13_p0	lambda_cid14_p0	lambda_cid14_p1	lambda_cid14_p2	lambda_cid14_p3	lambda_cid14_p4	lambda_cid14_p5	/jointset/ground_pelvis/pelvis_tilt/accel	/jointset/ground_pelvis/pelvis_tx/accel	/jointset/ground_pelvis/pelvis_ty/accel	/jointset/hip_r/hip_flexion_r/accel	/jointset/hip_r/hip_adduction_r/accel	/jointset/hip_r/hip_rotation_r/accel	/jointset/back/lumbar_extension/accel	/jointset/patellofemoral_r/patellar_flexion_r/accel	/jointset/knee_r/knee_flexion_r/accel	/jointset/knee_r/knee_adduction_r/accel	/jointset/knee_r/knee_rotation_r/accel	/jointset/ankle_r/ankle_angle_r/accel	/jointset/subtalar_r/subtalar_angle_r/accel	gamma_cid13_p0	gamma_cid14_p0	gamma_cid14_p1	gamma_cid14_p2	gamma_cid14_p3	gamma_cid14_p4	gamma_cid14_p5
0.5	-0.161166569745425	0.03615371830989458	0.8364250586562454	0.8409693287803698	-0.2450497164870429	-0.09182341400413534	-0.3216104091937655	0.7862763865481761	0.7862763865482157	0.07045560225579654	0.1744721967569822	0.2757073133862049	0.03916097684285836	-0.4318476200777812	-0.1326235791993159	-0.4358307207324149	1.828880753475507	-0.02133668461498743	0.3926692321352731	-0.5963610767549755	1.917903562331452	1.917903562331378	-0.1849751655249902	-0.0002931060901036621	0.6118610259024017	0.130750910863436	-0.1152861071164696	-0.01128776893250231	0.01465543254421151	-0.3387559916871192	0.05114672960584537	-0.01174862349101515	0.1602366884204287	-26.23725447827608	-25.31205442857992	-6.016521955763254	-2.599078790490712	5.329068873737872	-662.6136269617158	54.61692176751333	0.1974023064413288	0.3266543976349207	-0.4443028051133409	-0.9861247995399985	0.1096850800577161	-0.4131198133215971	1.415360984093596	-1.366266033938532	-1.366266033938532	0.4383292970053688	-0.03353771062711949	-0.6798593353022963	0.05398536221091901	-1.549511477391751e-07	-9.839298886745051e-08	1.568054022538992e-06	-7.524344332426929e-07	-1.133348638427705e-07	-1.756130023030833e-07	1.113982456548972e-06
0.51	-0.1654743563481792	0.03484398802800789	0.8320455017719767	0.8592059820888226	-0.2452583378493937	-0.0879182957282405	-0.3275028072454328	0.805384392158676	0.8053843921587115	0.06862882828078176	0.1744690990436943	0.2817908192437391	0.04046992811681323	-0.4296483426258439	-0.1293082491668384	-0.4399837902197425	1.818206625433703	-0.02038968707810937	0.3883301756655839	-0.5820554449571245	1.903438909140035	1.903438909139975	-0.1803776793948597	-0.0003234486272341658	0.6047563271244232	0.1310159430468976	-0.1217308425998782	-0.009551834672441459	0.0150557657059336	-0.3419894336462817	0.04725804076239597	-0.01067367288148141	0.1659286552730759	-25.05111462692462	-26.73348032720614	-5.914978237757949	-2.482281062456278	5.830387705681969	-666.7570493271369	54.68049239363353	0.2403842403230262	0.3360843129871557	-0.3863122636834794	-1.144560940128116	0.08689586571601696	-0.4481399173036459	1.447627570207095	-1.52533243531948	-1.525332435317202	0.4709407873609859	0.01255278314987624	-0.7383832796901572	0.009404239865944746	-1.461158967010661e-07	-9.299209783883643e-08	1.465358101680313e-06	-7.202875036290264e-07	-1.077947032732164e-07	-1.582147263986139e-07	1.046839388654725e-06
0.52	-0.1697583114212492	0.03356783344783425	0.8276273135442059	0.8773285932901626	-0.2454575514813328	-0.08405733628775437	-0.3332502563205982	0.824339997742549	0.8243399977425537	0.06684812567028782	0.1744657649667466	0.2878007564873659	0.04178085813129307	-0.4270813141438327	-0.1259084388567094	-0.4435569894327556	1.806072332046826	-0.01945513853268296	0.3838374650554509	-0.5673712814562848	1.887423557005565	1.88742355700552	-0.1757608926109561	-0.0003403788281365171	0.5971473031206673	0.1311466589684434	-0.1281755780831483	-0.007815900412425983	0.01545609886795774	-0.3452228756054434	0.0433693519189166	-0.009598722272023805	0.1716206221258614	-23.85662143981668	-28.16097833212149	-5.809729945977555	-2.371520128897883	6.332594567544755	-670.9982648787869	54.80685970917758	0.2709525124557748	0.3435504531656642	-0.3283287502503884	-1.27815786855455	0.1071952817672878	-0.443850641410472	1.491067324691119	-1.676405822549492	-1.676405822549415	0.4421894277601451	-0.03085524338125758	-0.7807243804572633	0.0271221098277257	-1.370441625303696e-07	-8.774120944611107e-08	1.359113463353572e-06	-6.877587338737635e-07	-1.013592234710195e-07	-1.432073787369876e-07	9.763468254920213e-07
0.53	-0.1740148437882929	0.03232606369912455	0.8231763208047211	0.8953227543677215	-0.2456474207642941	-0.08024194248801057	-0.3388490380810795	0.8431278647134655	0.843127864713481	0.06511356622034876	0.174462182794075	0.2937321916472308	0.04309250609129041	-0.4241677019435477	-0.1224343947522884	-0.4465409198931896	1.792524946080352	-0.01852077630273538	0.3792151408246518	-0.5523332614675172	1.869902325942038	1.869902325942024	-0.1711537897645359	-0.0003716677273042819	0.5890632043272277	0.1311602322123016	-0.1344491023450136	-0.006216040429216091	0.01583076038728846	-0.3486630794545259	0.03981627879371587	-0.00866959530334202	0.1771668028922737	-22.65661270009394	-29.49039799384729	-5.758763675919503	-2.242825783408843	6.784095944148461	-675.2838260274624	54.86847206259772	0.3101747007151909	0.3509792144226154	-0.2683564730895412	-1.428280467602926	0.08624034649994272	-0.475527592676854	1.517940711232262	-1.827081978426196	-1.827081978421297	0.4697150237714526	0.01129121870072475	-0.8337618607508731	-0.01480406542154502	-1.289422432942226e-07	-8.405266404689224e-08	1.265136217135e-06	-6.603605957297733e-07	-9.421737782901242e-08	-1.334074576137406e-07	9.141987886909691e-07
0.54	-0.1782405182079382	0.03111936395652906	0.8186985025048015	0.9131743912842676	-0.2458280096943749	-0.07647359278633567	-0.344295885366612	0.8617330993277265	0.8617330993277142	0.0634250266610183	0.1744583991187786	0.2995804839727695	0.0444036339843093	-0.4209097246673023	-0.1188944376338663	-0.4489221015196911	1.777567499837537	-0.01759906795711991	0.3744286454433709	-0.5369843864683005	1.850897085671632	1.85089708567165	-0.1665569144905754	-0.0003806793510682305	0.5805187362552497	0.1310426455727037	-0.1407226266067247	-0.004616180446020593	0.01620542190658763	-0.3521032833035935	0.03626320566849616	-0.007740468334685503	0.1827129836588345	-21.45435089865995	-30.82657847461868	-5.704570202178904	-2.11968456137412	7.238184631825642	-679.6762890964069	54.98935315528749	0.3398255276475469	0.3567330559663266	-0.2077789834638188	-1.560169923822592	0.1046645049007357	-0.476684871506946	1.553238326780786	-1.973207663925261	-1.973207663925313	0.4401439132683425	-0.02639978830026926	-0.8727982361644776	0.0008901331364525433	-1.219133107941729e-07	-8.20926683426168e-08	1.184731404738232e-06	-6.38638901070595e-07	-8.629402104508778e-08	-1.293689445755091e-07	8.612829938219569e-07
0.55	-0.1824319155545959	0.02994835648740447	0.8141999228487067	0.9308694851426564	-0.245999406907248	-0.07275379819908369	-0.3495877876717051	0.8801409621183459	0.8801409621183365	0.06178236125609905	0.1744545056539177	0.3053411057155045	0.04571297275886117	-0.4173147802542775	-0.1152991278510141	-0.4506900251806832	1.761222423200548	-0.01668299754532052	0.3695056581239319	-0.5213522758282891	1.83043788959958	1.83043788959959	-0.1619793499490325	-0.0003944896917514215	0.571535725167308	0.1308019437819195	-0.1468896823289336	-0.003163783723001562	0.01656398217520147	-0.3556121949089465	0.03285118858216798	-0.006890220144707943	0.1881568593007534	-20.25381248741851	-32.12318406688331	-5.681037473018561	-1.987847931154489	7.685744995264454	-684.0873587634337	55.08305227656505	0.3775647150367694	0.362102797163459	-0.145753812701588	-1.70601415488555	0.08466799377354008	-0.5039619589925372	1.574767240330229	-2.117889391295737	-2.117889391296866	0.4662281612541352	0.01156321439704277	-0.921562965788511	-0.03991940406504373	-1.143545324208031e-07	-7.909364496565697e-08	1.099469027235668e-06	-6.11806332551226e-07	-7.867500799410498e-08	-1.232851786158976e-07	8.034619923051555e-07
0.5600000000000001	-0.1865857162937243	0.02881353668765367	0.8096867730049442	0.948394260710462	-0.2461617254791036	-0.0690840047444109	-0.3547220549088452	0.8983371101857531	0.8983371101857217	0.06018540458388247	0.1744505610599596	0.3110097952632257	0.04701923070172991	-0.4133904031650251	-0.111656903759108	-0.4518361390531726	1.743503841713642	-0.01578333975534005	0.364428418931286	-0.5054573728795765	1.808554141029498	1.808554141029499	-0.1574151679412076	-0.0003909051784720602	0.5621322972521915	0.1304264792359691	-0.1530567380509929	-0.001711387000028737	0.01692254244426585	-0.3591211065143036	0.0294391714958057	-0.006039971954813942	0.1936007349428235	-19.0619161305747	-33.42535071668223	-5.654113900154818	-1.861537421446189	8.13259687143767	-688.5867038623435	55.23138384514701	0.4057120628927525	0.3661159177775161	-0.0834170257632247	-1.83487089380588	0.101381980536854	-0.5075352461484374	1.60579678852094	-2.258118163531505	-2.258118163531683	0.437467406524919	-0.02292081750752228	-0.9568816015989402	-0.02606241789683158	-1.061599389994492e-07	-7.484778838147591e-08	1.008377571606151e-06	-5.788407153996281e-07	-7.142120742265241e-08	-1.147471091506302e-07	7.397547428110071e-07
0.5700000000000001	-0.1906986732578409	0.02771533562574044	0.8051652970408243	0.9657350866902377	-0.2463150760735309	-0.06546562369399099	-0.3596961487730291	0.9163073924835032	0.9163073924835153	0.05863396956562632	0.1744465810511055	0.316582421830524	0.04832112540060562	-0.4091487304146065	-0.1079787487165314	-0.452352510844687	1.724437311066041	-0.01489033951528721	0.3592251888104778	-0.4893276291380169	1.785271927956156	1.785271927956128	-0.1528727779007533	-0.0004026043566393738	0.5523280955166723	0.1299277884258932	-0.1590773169300889	-0.0003754071733380353	0.01726795132683768	-0.3627318870884345	0.02619667262096182	-0.005286218341107958	0.1989042897108536	-17.88211053795186	-34.67871593093231	-5.666302019619827	-1.722424702883796	8.574448520120001	-693.0828105449764	55.3339385200201	0.4412257798916351	0.3693358210221299	-0.01978780027346633	-1.976159954040087	0.08270220028921076	-0.5302497641832421	1.621628789296094	-2.397811159429311	-2.397811159433496	0.4626037892480649	0.009996116261407107	-1.001950854987129	-0.06538858954145131	-9.82226242865745e-08	-6.978956249497083e-08	9.247921671860932e-07	-5.426504899870481e-07	-6.57104277074162e-08	-1.049641482679193e-07	6.797356273345027e-07
0.58	-0.1947676473146795	0.02665405021895926	0.8006418492499028	0.9828785242028151	-0.2464596080346369	-0.06189998151862477	-0.3645079320753237	0.9340379449944838	0.9340379449945112	0.05712795424505035	0.174442542167334	0.3220550541013765	0.04961730995598578	-0.4045938217132274	-0.1042737727326992	-0.4522305044134428	1.704026148266342	-0.0140196130932329	0.3538806439242252	-0.4729952605036064	1.76060818367506	1.760608183675003	-0.1483312284026025	-0.000402680165510305	0.5421334379628094	0.1292844505366824	-0.1650978958090286	0.0009605726533281823	0.01761336020968716	-0.3663426676625609	0.02295417374609187	-0.004532464727450719	0.2042078444790371	-16.71664238354697	-35.93730069035939	-5.675490889181408	-1.588260015964003	9.014147794975042	-697.661923238466	55.48593482925241	0.4683592530845858	0.3714801060290264	0.04425861878855786	-2.10379732422542	0.09692721693703549	-0.5357981992374375	1.646321767091023	-2.534424405082245	-2.534424405082468	0.4372992980643546	-0.02059614364801228	-1.034972765267255	-0.0549918337238636	-9.062037021730083e-08	-6.367336728450897e-08	8.50982085271378e-07	-5.02260774746213e-07	-6.200916352585713e-08	-9.355993344621242e-08	6.245196631367909e-07
0.59	-0.1987895688783067	0.02562991786018645	0.7961228221517467	0.9998112611319989	-0.2465954710670736	-0.05838852700390639	-0.3691554225562044	0.9515150872402148	0.9515150872402344	0.05566714409721205	0.1744384878005088	0.3274238910441514	0.05090644490732851	-0.3997404462960467	-0.1005507341314014	-0.4514669061683901	1.682302284877565	-0.01315566958610613	0.3483776600989067	-0.4564770795953424	1.73459991664784	1.734599916647823	-0.1438423025667902	-0.0004018995044682799	0.5315767831985218	0.1285200483949391	-0.1709652852266834	0.00216754431861946	0.01794773815833429	-0.3700152728763653	0.01987065678336351	-0.003849329492643069	0.2093619611147778	-15.56740651903567	-37.14593526248478	-5.710086789314705	-1.446065790999083	9.440095438794497	-702.1858992376929	55.61347264125425	0.5013264167202305	0.3729985035979388	0.1085944091843401	-2.239531729820162	0.08070372635689113	-0.5625598436345903	1.658429663744754	-2.667062942197041	-2.66706294219078	0.4530665850596608	0.01128938583597105	-1.074606738855964	-0.09046737037929807	-8.264437090200368e-08	-5.717299991903899e-08	7.761803621497951e-07	-4.589263978836756e-07	-5.848065991966742e-08	-8.209265644368221e-08	5.698355475537159e-07
